<?xml version="1.0" encoding="utf-8"?>
<!-- Generator: Adobe Illustrator 15.0.2, SVG Export Plug-In . SVG Version: 6.00 Build 0)  -->
<!DOCTYPE svg PUBLIC "-//W3C//DTD SVG 1.1//EN" "http://www.w3.org/Graphics/SVG/1.1/DTD/svg11.dtd">
<svg version="1.1" xmlns="http://www.w3.org/2000/svg" xmlns:xlink="http://www.w3.org/1999/xlink" x="0px" y="0px"
	 width="529.907px" height="336.847px" viewBox="0 0 529.907 336.847" enable-background="new 0 0 529.907 336.847"
	 xml:space="preserve">
<g id="Ebene_2">
	<rect x="90.737" y="242.621" stroke="#2C9A2D" stroke-width="5" stroke-linejoin="round" width="4.578" height="85.439"/>
	<rect x="75.521" y="242.979" stroke="#F8B739" stroke-width="5" stroke-linejoin="round" width="4.578" height="85.438"/>
	<rect x="59.585" y="242.979" stroke="#36A1BC" stroke-width="5" stroke-linejoin="round" width="4.578" height="85.438"/>
	<rect x="44.373" y="242.979" stroke="#7BB442" stroke-width="5" stroke-linejoin="round" width="4.578" height="85.438"/>
	<rect x="28.583" y="242.979" stroke="#E64428" stroke-width="5" stroke-linejoin="round" width="4.578" height="85.438"/>
	<rect x="106.558" y="242.979" stroke="#4668AB" stroke-width="5" stroke-linejoin="round" width="4.578" height="85.438"/>
	<polygon fill="#7BB442" points="317.053,144.792 321.615,144.792 322.959,147.636 322.959,156.386 	"/>
</g>
<g id="Ebene_1">
	<g>
		<polygon fill="#E64428" stroke="#E64428" stroke-width="3" stroke-linejoin="round" stroke-miterlimit="10" points="
			352.959,254.229 348.599,254.229 347.746,1.5 353.771,1.5 		"/>
		<polygon fill="#E64428" stroke="#E64428" stroke-width="2" stroke-linejoin="round" stroke-miterlimit="10" points="
			351.586,252.102 347.752,254.721 414.103,330.608 417.938,327.988 		"/>
	</g>
	<g>
		<g>
			<g>
				<polygon fill="#7BB442" points="366.959,254.229 362.599,254.229 361.746,1.5 367.771,1.5 				"/>
				<polygon fill="none" stroke="#7BB442" stroke-width="3" stroke-linejoin="round" stroke-miterlimit="10" points="
					366.959,254.229 362.599,254.229 361.746,1.5 367.771,1.5 				"/>
			</g>
			<g>
				<polygon fill="#7BB442" points="365.586,252.102 361.752,254.721 428.103,330.608 431.938,327.988 				"/>
				<polygon fill="none" stroke="#7BB442" stroke-width="2" stroke-linejoin="round" stroke-miterlimit="10" points="
					365.586,252.102 361.752,254.721 428.103,330.608 431.938,327.988 				"/>
			</g>
		</g>
	</g>
	<g>
		<g>
			<g>
				<polygon fill="#36A1BC" points="380.959,254.229 376.6,254.229 375.746,1.5 381.771,1.5 				"/>
				<polygon fill="none" stroke="#36A1BC" stroke-width="3" stroke-linejoin="round" stroke-miterlimit="10" points="
					380.959,254.229 376.6,254.229 375.746,1.5 381.771,1.5 				"/>
			</g>
			<g>
				<polygon fill="#36A1BC" points="379.586,252.102 375.752,254.721 442.104,330.608 445.939,327.988 				"/>
				<polygon fill="none" stroke="#36A1BC" stroke-width="2" stroke-linejoin="round" stroke-miterlimit="10" points="
					379.586,252.102 375.752,254.721 442.104,330.608 445.939,327.988 				"/>
			</g>
		</g>
	</g>
	<g>
		<g>
			<g>
				<polygon fill="#F8B739" points="394.959,254.229 390.6,254.229 389.746,1.5 395.771,1.5 				"/>
				<polygon fill="none" stroke="#F8B739" stroke-width="3" stroke-linejoin="round" stroke-miterlimit="10" points="
					394.959,254.229 390.6,254.229 389.746,1.5 395.771,1.5 				"/>
			</g>
			<g>
				<polygon fill="#F8B739" points="393.586,252.102 389.752,254.721 456.104,330.608 459.939,327.988 				"/>
				<polygon fill="none" stroke="#F8B739" stroke-width="2" stroke-linejoin="round" stroke-miterlimit="10" points="
					393.586,252.102 389.752,254.721 456.104,330.608 459.939,327.988 				"/>
			</g>
		</g>
	</g>
	<g>
		<g>
			<g>
				<polygon fill="#2C9A2D" points="408.427,254.229 404.066,254.229 403.213,1.5 409.239,1.5 				"/>
				<polygon fill="none" stroke="#2C9A2D" stroke-width="3" stroke-linejoin="round" stroke-miterlimit="10" points="
					408.427,254.229 404.066,254.229 403.213,1.5 409.239,1.5 				"/>
			</g>
			<g>
				<polygon fill="#2C9A2D" points="407.054,252.102 403.22,254.721 469.57,330.608 473.406,327.988 				"/>
				<polygon fill="none" stroke="#2C9A2D" stroke-linejoin="round" stroke-miterlimit="10" points="407.054,252.102 403.22,254.721 
					469.57,330.608 473.406,327.988 				"/>
			</g>
		</g>
	</g>
	<g>
		<g>
			<g>
				<polygon fill="#E64428" points="422.427,254.229 418.066,254.229 417.213,1.5 423.239,1.5 				"/>
				<polygon fill="none" stroke="#E64428" stroke-width="3" stroke-linejoin="round" stroke-miterlimit="10" points="
					422.427,254.229 418.066,254.229 417.213,1.5 423.239,1.5 				"/>
			</g>
			<g>
				<polygon fill="#E64428" points="421.054,252.102 417.22,254.721 483.57,330.608 487.406,327.988 				"/>
				<polygon fill="none" stroke="#E64428" stroke-linejoin="round" stroke-miterlimit="10" points="421.054,252.102 417.22,254.721 
					483.57,330.608 487.406,327.988 				"/>
			</g>
		</g>
	</g>
	<g>
		<g>
			<g>
				<polygon fill="#4668AB" points="436.427,254.229 432.067,254.229 431.214,1.5 437.239,1.5 				"/>
				<polygon fill="none" stroke="#4668AB" stroke-width="3" stroke-linejoin="round" stroke-miterlimit="10" points="
					436.427,254.229 432.067,254.229 431.214,1.5 437.239,1.5 				"/>
			</g>
			<g>
				<polygon fill="#4668AB" points="435.054,252.102 431.22,254.721 497.571,330.608 501.407,327.988 				"/>
				<polygon fill="none" stroke="#4668AB" stroke-linejoin="round" stroke-miterlimit="10" points="435.054,252.102 431.22,254.721 
					497.571,330.608 501.407,327.988 				"/>
			</g>
		</g>
	</g>
	<g>
		<g>
			<g>
				<polygon fill="#9BC126" points="450.427,254.229 446.067,254.229 445.214,1.5 451.239,1.5 				"/>
				<polygon fill="none" stroke="#9BC126" stroke-width="3" stroke-linejoin="round" stroke-miterlimit="10" points="
					450.427,254.229 446.067,254.229 445.214,1.5 451.239,1.5 				"/>
			</g>
			<g>
				<polygon fill="#9BC126" points="449.054,252.102 445.22,254.721 511.571,330.608 515.407,327.988 				"/>
				<polygon fill="none" stroke="#9BC126" stroke-linejoin="round" stroke-miterlimit="10" points="449.054,252.102 445.22,254.721 
					511.571,330.608 515.407,327.988 				"/>
			</g>
		</g>
	</g>
	<g>
		<g>
			<g>
				<polygon fill="#AB438F" points="464.427,254.229 460.067,254.229 459.214,1.5 465.239,1.5 				"/>
				<polygon fill="none" stroke="#AB438F" stroke-width="3" stroke-linejoin="round" stroke-miterlimit="10" points="
					464.427,254.229 460.067,254.229 459.214,1.5 465.239,1.5 				"/>
			</g>
			<g>
				<polygon fill="#AB438F" points="463.054,252.102 459.22,254.721 525.571,330.608 529.407,327.988 				"/>
				<polygon fill="none" stroke="#AB438F" stroke-linejoin="round" stroke-miterlimit="10" points="463.054,252.102 459.22,254.721 
					525.571,330.608 529.407,327.988 				"/>
			</g>
		</g>
	</g>
	
		<rect x="313.397" y="265.896" transform="matrix(0.7661 0.6428 -0.6428 0.7661 267.9278 -132.2756)" fill="#E64428" stroke="#E64428" stroke-linejoin="round" stroke-miterlimit="10" width="4.578" height="72.097"/>
	
		<rect x="325.315" y="273.946" transform="matrix(0.7661 0.6428 -0.6428 0.7661 272.9601 -139.1192)" fill="#7BB442" stroke="#7BB442" stroke-linejoin="round" stroke-miterlimit="10" width="4.578" height="62.981"/>
	
		<rect x="336.874" y="284.355" transform="matrix(0.7662 0.6427 -0.6427 0.7662 278.5068 -145.4836)" fill="#36A1BC" stroke="#36A1BC" stroke-linejoin="round" stroke-miterlimit="10" width="4.578" height="51.202"/>
	
		<rect x="348.383" y="295.872" transform="matrix(0.7661 0.6428 -0.6428 0.7661 284.4838 -151.7163)" fill="#F8B739" stroke="#F8B739" stroke-linejoin="round" stroke-miterlimit="10" width="4.578" height="38.194"/>
	
		<rect x="360.638" y="305.586" transform="matrix(0.7661 0.6428 -0.6428 0.7661 290.0724 -158.603)" fill="#E64428" stroke="#E64428" stroke-linejoin="round" stroke-miterlimit="10" width="4.578" height="27.233"/>
	
		<rect x="372.423" y="316.345" transform="matrix(0.7661 0.6428 -0.6428 0.7661 295.84 -165.082)" fill="#4668AB" stroke="#4668AB" stroke-linejoin="round" stroke-miterlimit="10" width="4.578" height="15.083"/>
	
		<rect x="359.032" y="256.182" transform="matrix(0.7642 -0.6449 0.6449 0.7642 -108.6601 304.3924)" fill="#FFFFFF" width="5.951" height="89.272"/>
	
		<ellipse transform="matrix(0.9885 -0.1515 0.1515 0.9885 -29.1048 32.7075)" fill="#FFFFFF" stroke="#E64428" stroke-width="5" stroke-miterlimit="10" cx="200.092" cy="207.355" rx="121.68" ry="122.17"/>
	<ellipse fill="#FFFFFF" stroke="#FFFFFF" stroke-width="4" cx="197.143" cy="205.855" rx="119.333" ry="125.175"/>
	<ellipse fill="#FFFFFF" stroke="#FFFFFF" stroke-width="4" cx="174.855" cy="206.855" rx="119.333" ry="125.175"/>
	
		<rect x="2" y="81.299" fill="#FFFFFF" stroke="#000000" stroke-width="4" stroke-linejoin="round" width="129.371" height="159.441"/>
	<rect x="293.188" y="139.417" fill="#FFFFFF" stroke="#FFFFFF" stroke-width="4" width="38.333" height="3.25"/>
	<rect x="12.136" y="82.299" stroke="#000000" stroke-width="5" stroke-linejoin="round" width="4.578" height="246.117"/>
	
		<rect x="225.504" y="81.299" fill="#FFFFFF" stroke="#000000" stroke-width="4" stroke-linejoin="round" width="123.721" height="56.119"/>
	<circle fill="#FFFFFF" stroke="#000000" stroke-width="4" cx="184.05" cy="205.855" r="125.175"/>
	<circle stroke="#000000" cx="184.049" cy="205.855" r="117.133"/>
	<circle fill="#FFFFFF" stroke="#000000" stroke-width="4" cx="184.05" cy="205.855" r="125.175"/>
	<g>
		<path stroke="#000000" d="M185.336,88.613c-18.8,0-36.555,4.502-52.268,12.484v209.145c15.712,7.983,33.467,12.484,52.268,12.484
			c64.189,0,116.221-52.408,116.221-117.057C301.558,141.021,249.525,88.613,185.336,88.613z"/>
		<path stroke="#000000" d="M114.11,114.075c-28.995,21.285-47.844,55.75-47.844,94.653c0,38.904,18.849,73.37,47.844,94.654
			V114.075z"/>
	</g>
	
		<rect x="362.884" y="246.811" transform="matrix(0.766 -0.6429 0.6429 0.766 -102.4585 303.1774)" stroke="#000000" stroke-width="5" stroke-linejoin="round" width="4.578" height="91.001"/>
	
		<rect x="303.32" y="246.813" transform="matrix(0.7661 0.6428 -0.6428 0.7661 259.3794 -128.0516)" stroke="#000000" stroke-width="5" stroke-linejoin="round" width="4.578" height="91"/>
	<line fill="none" stroke="#FFFFFF" stroke-width="6" stroke-linejoin="round" x1="271.98" y1="41.381" x2="403.213" y2="41.381"/>
	
		<line fill="none" stroke="#000000" stroke-width="3" stroke-linejoin="round" x1="314.984" y1="81.299" x2="314.984" y2="136.733"/>
	
		<line fill="none" stroke="#000000" stroke-width="3" stroke-linejoin="round" x1="335.984" y1="82.299" x2="335.984" y2="137.733"/>
	
		<line fill="none" stroke="#000000" stroke-width="3" stroke-linejoin="round" x1="257.984" y1="81.299" x2="257.984" y2="104.349"/>
	<line fill="none" stroke="#000000" stroke-width="3" stroke-linejoin="round" x1="236.984" y1="81.299" x2="236.984" y2="94.009"/>
	<rect x="333.775" y="2.563" stroke="#000000" stroke-width="5" stroke-linejoin="round" width="4.578" height="253.667"/>
	
		<rect x="276.493" y="36.685" fill="#FFFFFF" stroke="#000000" stroke-width="6" stroke-linejoin="round" width="123.721" height="9.393"/>
</g>
<g id="Ebene_3">
</g>
</svg>
