<?xml version="1.0" encoding="UTF-8" standalone="no"?>
<svg width="631px" height="168px" viewBox="0 0 631 168" version="1.1" xmlns="http://www.w3.org/2000/svg" xmlns:xlink="http://www.w3.org/1999/xlink" xmlns:sketch="http://www.bohemiancoding.com/sketch/ns">
    <!-- Generator: Sketch 3.2.2 (9983) - http://www.bohemiancoding.com/sketch -->
    <title>Artboard 1</title>
    <desc>Created with Sketch.</desc>
    <defs></defs>
    <g id="Page-1" stroke="none" stroke-width="1" fill="none" fill-rule="evenodd" sketch:type="MSPage">
        <g id="Artboard-1" sketch:type="MSArtboardGroup">
            <g id="Group" sketch:type="MSLayerGroup" transform="translate(9.000000, 7.000000)">
                <rect id="Rectangle-87" fill="#7ED321" sketch:type="MSShapeGroup" x="5.4836731" y="26.9302979" width="170" height="33.0773239"></rect>
                <rect id="Rectangle-88" stroke="#FFFFFF" stroke-width="6" sketch:type="MSShapeGroup" x="0.627823781" y="20.9302637" width="180" height="120" rx="5"></rect>
                <rect id="Rectangle-86" fill="#DD1166" sketch:type="MSShapeGroup" x="13" y="66" width="74" height="35.0773223"></rect>
                <rect id="Rectangle-77" fill="#DD1166" sketch:type="MSShapeGroup" x="93" y="66" width="74" height="35.0773223"></rect>
                <rect id="Rectangle-85" fill="#4990E2" sketch:type="MSShapeGroup" x="13" y="106" width="34" height="29.0773239"></rect>
                <rect id="Rectangle-84" fill="#4990E2" sketch:type="MSShapeGroup" x="53" y="106" width="34" height="29.0773239"></rect>
                <rect id="Rectangle-83" fill="#4990E2" sketch:type="MSShapeGroup" x="93" y="106" width="34" height="29.0773239"></rect>
                <rect id="Rectangle-82" fill="#4990E2" sketch:type="MSShapeGroup" x="133" y="106" width="34" height="29.0773239"></rect>
                <path d="M449,144 L469,144" id="Line-153" stroke="#7ED321" stroke-width="6" stroke-linecap="square" sketch:type="MSShapeGroup"></path>
                <path d="M448,24 L484,24" id="Line-152" stroke="#7ED321" stroke-width="6" stroke-linecap="square" sketch:type="MSShapeGroup"></path>
                <path d="M498,24 L548.789394,24" id="Line-151" stroke="#FFFFFF" stroke-width="6" stroke-linecap="square" sketch:type="MSShapeGroup"></path>
                <path d="M466,34 L607.25,34" id="Line-150" stroke="#FFFFFF" stroke-width="6" stroke-linecap="square" sketch:type="MSShapeGroup"></path>
                <path d="M466,44 L594.015625,44" id="Line-149" stroke="#DD1166" stroke-width="6" stroke-linecap="square" sketch:type="MSShapeGroup"></path>
                <path d="M466,54 L603.003647,54" id="Line-148" stroke="#4990E2" stroke-width="6" stroke-linecap="square" sketch:type="MSShapeGroup"></path>
                <path d="M466,64 L607.25,64" id="Line-147" stroke="#FFFFFF" stroke-width="6" stroke-linecap="square" sketch:type="MSShapeGroup"></path>
                <path d="M448,74 L468,74" id="Line-146" stroke="#7ED321" stroke-width="6" stroke-linecap="square" sketch:type="MSShapeGroup"></path>
                <path d="M448,94 L484,94" id="Line-145" stroke="#7ED321" stroke-width="6" stroke-linecap="square" sketch:type="MSShapeGroup"></path>
                <path d="M498,94 L567.757172,94" id="Line-144" stroke="#FFFFFF" stroke-width="6" stroke-linecap="square" sketch:type="MSShapeGroup"></path>
                <path d="M466,104 L607.25,104" id="Line-143" stroke="#4990E2" stroke-width="6" stroke-linecap="square" sketch:type="MSShapeGroup"></path>
                <path d="M466,114 L594,114" id="Line-142" stroke="#FFFFFF" stroke-width="6" stroke-linecap="square" sketch:type="MSShapeGroup"></path>
                <path d="M466,124 L607.25,124" id="Line-141" stroke="#FFFFFF" stroke-width="6" stroke-linecap="square" sketch:type="MSShapeGroup"></path>
                <path d="M466,134 L607.25,134" id="Line-139" stroke="#DD1166" stroke-width="6" stroke-linecap="square" sketch:type="MSShapeGroup"></path>
                <rect id="Rectangle-72" stroke="#FFFFFF" stroke-width="6" fill="#7ED321" sketch:type="MSShapeGroup" transform="translate(239.000000, 11.000000) rotate(-5.000000) translate(-239.000000, -11.000000) " x="229" y="1" width="20" height="20" rx="5"></rect>
                <rect id="Rectangle-71" stroke="#FFFFFF" stroke-width="6" fill="#4990E2" sketch:type="MSShapeGroup" transform="translate(276.000000, 26.000000) rotate(-27.000000) translate(-276.000000, -26.000000) " x="266" y="16" width="20" height="20" rx="5"></rect>
                <rect id="Rectangle-70" stroke="#FFFFFF" stroke-width="6" fill="#000000" sketch:type="MSShapeGroup" x="295" y="21" width="20" height="20" rx="5"></rect>
                <rect id="Rectangle-69" stroke="#FFFFFF" stroke-width="6" fill="#7ED321" sketch:type="MSShapeGroup" transform="translate(337.000000, 33.000000) rotate(-19.000000) translate(-337.000000, -33.000000) " x="327" y="23" width="20" height="20" rx="5"></rect>
                <rect id="Rectangle-68" stroke="#FFFFFF" stroke-width="6" fill="#000000" sketch:type="MSShapeGroup" transform="translate(364.000000, 33.000000) rotate(9.000000) translate(-364.000000, -33.000000) " x="354" y="23" width="20" height="20" rx="5"></rect>
                <rect id="Rectangle-66" stroke="#FFFFFF" stroke-width="6" fill="#000000" sketch:type="MSShapeGroup" transform="translate(252.000000, 41.000000) rotate(-19.000000) translate(-252.000000, -41.000000) " x="242" y="31" width="20" height="20" rx="5"></rect>
                <rect id="Rectangle-65" stroke="#FFFFFF" stroke-width="6" fill="#000000" sketch:type="MSShapeGroup" x="271" y="45" width="20" height="20" rx="5"></rect>
                <rect id="Rectangle-64" stroke="#FFFFFF" stroke-width="6" fill="#000000" sketch:type="MSShapeGroup" transform="translate(310.000000, 56.000000) rotate(-21.000000) translate(-310.000000, -56.000000) " x="300" y="46" width="20" height="20" rx="5"></rect>
                <rect id="Rectangle-63" stroke="#FFFFFF" stroke-width="6" fill="#DD1166" sketch:type="MSShapeGroup" x="327" y="48" width="20" height="20" rx="5"></rect>
                <rect id="Rectangle-62" stroke="#FFFFFF" stroke-width="6" fill="#4990E2" sketch:type="MSShapeGroup" transform="translate(364.000000, 58.000000) rotate(-2.000000) translate(-364.000000, -58.000000) " x="354" y="48" width="20" height="20" rx="5"></rect>
                <rect id="Rectangle-61" stroke="#FFFFFF" stroke-width="6" fill="#000000" sketch:type="MSShapeGroup" transform="translate(391.000000, 58.000000) rotate(-7.000000) translate(-391.000000, -58.000000) " x="381" y="48" width="20" height="20" rx="5"></rect>
                <rect id="Rectangle-60" stroke="#FFFFFF" stroke-width="6" fill="#4990E2" sketch:type="MSShapeGroup" x="243" y="63" width="20" height="20" rx="5"></rect>
                <rect id="Rectangle-59" stroke="#FFFFFF" stroke-width="6" fill="#DD1166" sketch:type="MSShapeGroup" x="273" y="75" width="20" height="20" rx="5"></rect>
                <rect id="Rectangle-58" stroke="#FFFFFF" stroke-width="6" fill="#7ED321" sketch:type="MSShapeGroup" transform="translate(310.000000, 83.000000) rotate(14.000000) translate(-310.000000, -83.000000) " x="300" y="73" width="20" height="20" rx="5"></rect>
                <rect id="Rectangle-57" stroke="#FFFFFF" stroke-width="6" fill="#000000" sketch:type="MSShapeGroup" x="327" y="73" width="20" height="20" rx="5"></rect>
                <rect id="Rectangle-56" stroke="#FFFFFF" stroke-width="6" fill="#DD1166" sketch:type="MSShapeGroup" transform="translate(364.000000, 83.000000) rotate(-8.000000) translate(-364.000000, -83.000000) " x="354" y="73" width="20" height="20" rx="5"></rect>
                <rect id="Rectangle-55" stroke="#FFFFFF" stroke-width="6" fill="#7ED321" sketch:type="MSShapeGroup" x="381" y="73" width="20" height="20" rx="5"></rect>
                <rect id="Rectangle-54" stroke="#FFFFFF" stroke-width="6" fill="#000000" sketch:type="MSShapeGroup" x="246" y="95" width="20" height="20" rx="5"></rect>
                <rect id="Rectangle-53" stroke="#FFFFFF" stroke-width="6" fill="#000000" sketch:type="MSShapeGroup" transform="translate(283.000000, 110.000000) rotate(14.000000) translate(-283.000000, -110.000000) " x="273" y="100" width="20" height="20" rx="5"></rect>
                <rect id="Rectangle-52" stroke="#FFFFFF" stroke-width="6" fill="#4990E2" sketch:type="MSShapeGroup" transform="translate(310.000000, 108.000000) rotate(-8.000000) translate(-310.000000, -108.000000) " x="300" y="98" width="20" height="20" rx="5"></rect>
                <rect id="Rectangle-51" stroke="#FFFFFF" stroke-width="6" fill="#000000" sketch:type="MSShapeGroup" transform="translate(337.000000, 108.000000) rotate(-27.000000) translate(-337.000000, -108.000000) " x="327" y="98" width="20" height="20" rx="5"></rect>
                <rect id="Rectangle-50" stroke="#FFFFFF" stroke-width="6" fill="#000000" sketch:type="MSShapeGroup" x="354" y="98" width="20" height="20" rx="5"></rect>
                <rect id="Rectangle-48" stroke="#FFFFFF" stroke-width="6" fill="#000000" sketch:type="MSShapeGroup" transform="translate(250.000000, 145.000000) rotate(14.000000) translate(-250.000000, -145.000000) " x="240" y="135" width="20" height="20" rx="5"></rect>
                <rect id="Rectangle-47" stroke="#FFFFFF" stroke-width="6" fill="#4990E2" sketch:type="MSShapeGroup" x="264" y="121" width="20" height="20" rx="5"></rect>
                <rect id="Rectangle-46" stroke="#FFFFFF" stroke-width="6" fill="#DD1166" sketch:type="MSShapeGroup" transform="translate(307.000000, 131.000000) rotate(-21.000000) translate(-307.000000, -131.000000) " x="297" y="121" width="20" height="20" rx="5"></rect>
                <rect id="Rectangle-45" stroke="#FFFFFF" stroke-width="6" fill="#000000" sketch:type="MSShapeGroup" x="327" y="123" width="20" height="20" rx="5"></rect>
                <rect id="Rectangle-44" stroke="#FFFFFF" stroke-width="6" fill="#7ED321" sketch:type="MSShapeGroup" transform="translate(364.000000, 133.000000) rotate(-8.000000) translate(-364.000000, -133.000000) " x="354" y="123" width="20" height="20" rx="5"></rect>
                <rect id="Rectangle-43" stroke="#FFFFFF" stroke-width="6" fill="#4990E2" sketch:type="MSShapeGroup" x="381" y="123" width="20" height="20" rx="5"></rect>
            </g>
        </g>
    </g>
</svg>