<?xml version="1.0" encoding="UTF-8" standalone="no"?>
<svg width="219px" height="221px" viewBox="0 0 219 221" version="1.1" xmlns="http://www.w3.org/2000/svg" xmlns:xlink="http://www.w3.org/1999/xlink" xmlns:sketch="http://www.bohemiancoding.com/sketch/ns">
    <!-- Generator: Sketch 3.2.2 (9983) - http://www.bohemiancoding.com/sketch -->
    <title>Artboard 2</title>
    <desc>Created with Sketch.</desc>
    <defs></defs>
    <g id="Page-1" stroke="none" stroke-width="1" fill="none" fill-rule="evenodd" sketch:type="MSPage">
        <g id="Artboard-2" sketch:type="MSArtboardGroup" fill="#7ED321">
            <path d="M203.762567,164.000028 C185.211151,196.269653 150.393273,218 110.5,218 C51.1293894,218 3,169.870611 3,110.5 C3,51.1293894 51.1293894,3 110.5,3 C150.445304,3 185.301965,24.7870672 203.835071,57.1262885 C202.322977,56.0606911 200.616237,55.1579197 198.714844,54.4179687 C193.957007,52.566397 188.742216,51.640625 183.070312,51.640625 C179.226543,51.640625 174.339873,52.1679635 168.410156,53.2226562 C162.480439,54.277349 156.56253,56.2109234 150.65625,59.0234375 L150.65625,70.625 C156.234403,68.0937373 160.265613,66.4179729 162.75,65.5976562 C165.234387,64.7773396 168.12889,64.062503 171.433594,63.453125 C174.738298,62.843747 177.726549,62.5390625 180.398438,62.5390625 C185.085961,62.5390625 189.304669,63.8163935 193.054688,66.3710938 C196.804706,68.925794 198.679688,72.5468516 198.679688,77.234375 C198.679688,80.1406395 197.871102,83.093735 196.253906,86.09375 C194.636711,89.093765 191.2969,93.4062219 186.234375,99.03125 C181.17185,104.656278 177.890632,108.24218 176.390625,109.789062 L168.9375,117.382812 C164.953105,121.460958 161.179705,125.703103 157.617188,130.109375 C154.05467,134.515647 151.640631,138.488264 150.375,142.027344 C149.109369,145.566424 148.476562,148.882797 148.476562,151.976562 L148.476562,164 L203.762583,164 Z M209.70666,151.976562 C215.048857,139.213711 218,125.201493 218,110.5 C218,98.8854356 216.15807,87.7010771 212.750382,77.2230975 C212.440705,81.5888187 210.97314,86.0456683 208.347656,90.59375 C205.371079,95.7500258 199.757854,102.382772 191.507812,110.492188 L183.492188,118.4375 L176.742188,125.046875 C172.476541,129.359397 169.031263,133.53123 166.40625,137.5625 C163.781237,141.59377 162.328126,146.39841 162.046875,151.976562 L209.70666,151.976562 Z" id="Oval-1" sketch:type="MSShapeGroup"></path>
        </g>
    </g>
</svg>