<?xml version="1.0" encoding="UTF-8" standalone="no"?>
<svg width="219px" height="221px" viewBox="0 0 219 221" version="1.1" xmlns="http://www.w3.org/2000/svg" xmlns:xlink="http://www.w3.org/1999/xlink" xmlns:sketch="http://www.bohemiancoding.com/sketch/ns">
    <!-- Generator: Sketch 3.2.2 (9983) - http://www.bohemiancoding.com/sketch -->
    <title>Artboard 1</title>
    <desc>Created with Sketch.</desc>
    <defs></defs>
    <g id="Page-1" stroke="none" stroke-width="1" fill="none" fill-rule="evenodd" sketch:type="MSPage">
        <g id="Artboard-1" sketch:type="MSArtboardGroup" fill="#4990E2">
            <path d="M203.762567,164.000028 C185.211151,196.269653 150.393273,218 110.5,218 C51.1293894,218 3,169.870611 3,110.5 C3,51.1293894 51.1293894,3 110.5,3 C169.870611,3 218,51.1293894 218,110.5 C218,125.63471 214.872369,140.038923 209.228182,153.101562 L187.015625,153.101562 L187.015625,54.875 L173.9375,54.875 C166.390587,61.8125347 157.484426,67.4609157 147.21875,71.8203125 L147.21875,83.6328125 C153.687532,81.335926 158.773419,79.0859485 162.476562,76.8828125 C166.179706,74.6796765 169.99998,72.0078282 173.9375,68.8671875 L173.9375,153.101562 L147.21875,153.101562 L147.21875,164 L203.762583,164 Z" id="Oval-1" sketch:type="MSShapeGroup"></path>
        </g>
    </g>
</svg>