<?xml version="1.0" encoding="UTF-8" standalone="no"?>
<svg width="219px" height="221px" viewBox="0 0 219 221" version="1.1" xmlns="http://www.w3.org/2000/svg" xmlns:xlink="http://www.w3.org/1999/xlink" xmlns:sketch="http://www.bohemiancoding.com/sketch/ns">
    <!-- Generator: Sketch 3.2.2 (9983) - http://www.bohemiancoding.com/sketch -->
    <title>Artboard 3</title>
    <desc>Created with Sketch.</desc>
    <defs></defs>
    <g id="Page-1" stroke="none" stroke-width="1" fill="none" fill-rule="evenodd" sketch:type="MSPage">
        <g id="Artboard-3" sketch:type="MSArtboardGroup" fill="#DD1166">
            <path d="M208.432728,154.897041 C191.532833,192.116244 154.039154,218 110.5,218 C51.1293894,218 3,169.870611 3,110.5 C3,51.1293894 51.1293894,3 110.5,3 C152.381415,3 188.668951,26.9502484 206.413595,61.9017343 C205.766918,61.0777712 205.062647,60.2706828 204.300781,59.4804688 C199.261694,54.2538801 190.109441,51.640625 176.84375,51.640625 C169.437463,51.640625 161.281295,53.3046709 152.375,56.6328125 L152.375,69.078125 C161.281295,64.7187282 169.601524,62.5390625 177.335938,62.5390625 C184.226597,62.5390625 189.335921,64.0976407 192.664062,67.2148438 C195.992204,70.3320468 197.65625,74.1640398 197.65625,78.7109375 C197.65625,83.7265876 195.617208,88.2851357 191.539062,92.3867188 C187.460917,96.4883018 180.851608,98.5390625 171.710938,98.5390625 L161.65625,98.5390625 L161.65625,109.4375 L168.898438,109.4375 C181.320375,109.4375 190.121068,111.617166 195.300781,115.976562 C200.480495,120.335959 203.070312,125.98434 203.070312,132.921875 C203.070312,139.812534 200.714867,145.449197 196.003906,149.832031 C191.292945,154.214866 185.328161,156.40625 178.109375,156.40625 C170.234336,156.40625 160.929741,153.687527 150.195312,148.25 L150.195312,162.03125 C156.101592,164.515637 161.105448,166.015622 165.207031,166.53125 C169.308614,167.046878 173.093733,167.304688 176.5625,167.304688 C188.56256,167.304688 198.347618,163.976596 205.917969,157.320312 C206.808617,156.537203 207.646873,155.729441 208.432736,154.897025 Z M216.828345,126.426546 C217.600137,121.229713 218,115.911553 218,110.5 C218,97.6749871 215.754139,85.3745232 211.634247,73.9704397 C211.784333,75.0833016 211.859375,76.2181547 211.859375,77.375 C211.859375,82.3437748 210.523451,87.0077907 207.851562,91.3671875 C205.179674,95.7265843 200.257848,99.6171704 193.085938,103.039062 C199.414094,104.914072 204.195296,107.210924 207.429688,109.929688 C210.664079,112.648451 213.113273,115.859356 214.777344,119.5625 C215.738718,121.701897 216.422384,123.989905 216.828345,126.426546 Z" id="Oval-1" sketch:type="MSShapeGroup"></path>
        </g>
    </g>
</svg>